<?xml version="1.0" encoding="UTF-8"?>
<svg id="_레이어_1" data-name="레이어_1" xmlns="http://www.w3.org/2000/svg" version="1.1" xmlns:xlink="http://www.w3.org/1999/xlink" viewBox="310 310 1310 500">
  <!-- Generator: Adobe Illustrator 30.3.0, SVG Export Plug-In . SVG Version: 2.1.3 Build 182)  -->
  <defs>
    <style>
      .st0 {
        fill: url(#_무제_그라디언트_48);
      }

      .st1 {
        fill: url(#_무제_그라디언트_481);
      }

      .st2 {
        fill: #fff;
        stroke: #fff;
        stroke-miterlimit: 10;
        stroke-width: 3px;
      }

      .st3 {
        fill: url(#_무제_그라디언트_482);
      }
    </style>
    <linearGradient id="_무제_그라디언트_48" data-name="무제 그라디언트 48" x1="526.95" y1="683.62" x2="526.95" y2="324.03" gradientUnits="userSpaceOnUse">
      <stop offset=".5" stop-color="#fff"/>
      <stop offset=".56" stop-color="#e6f0f9"/>
      <stop offset=".66" stop-color="#b3cfe8"/>
      <stop offset=".8" stop-color="#6699cc"/>
      <stop offset=".95" stop-color="#1a5fa3"/>
      <stop offset=".99" stop-color="#005b97"/>
    </linearGradient>
    <linearGradient id="_무제_그라디언트_481" data-name="무제 그라디언트 48" x1="960" x2="960" xlink:href="#_무제_그라디언트_48"/>
    <linearGradient id="_무제_그라디언트_482" data-name="무제 그라디언트 48" x1="1398.31" y1="703.79" x2="1398.31" xlink:href="#_무제_그라디언트_48"/>
  </defs>
  <g>
    <path class="st0" d="M403.51,385.86v199.09c0,24.56,11.4,36.84,42.98,36.84s43.41-12.28,43.41-36.84v-32.45h82.44v22.8c0,76.3-32.89,108.32-125.86,108.32s-125.42-32.01-125.42-108.32v-251.27h238.12v61.83h-155.68ZM594.7,324.03h82.44v128.49h55.69v61.83h-55.69v169.27h-82.44v-359.59Z"/>
    <path class="st1" d="M748.63,324.03h264.43v61.83h-39.03c17.98,17.54,25.87,43.41,25.87,79.81v217.95h-82.44v-257.41c0-24.56-8.77-39.03-35.08-40.34h-3.95c-25.87,1.32-34.2,15.79-34.2,40.34v257.41h-82.44v-217.95c0-36.4,7.89-62.27,25.87-79.81h-39.03v-61.83ZM1033.23,324.03h82.44v128.49h55.69v61.83h-55.69v169.27h-82.44v-359.59Z"/>
    <path class="st3" d="M1196.37,476.2h127.61v-64.9h82.44v64.9h86.83v-71.04c0-15.35-2.63-19.29-18.86-19.29h-249.08v-61.83h281.97c40.34,0,68.41,11.84,68.41,60.52v91.65h24.56v57.45h-403.88v-57.45ZM1319.59,703.79c-52.62,0-101.3-12.28-101.3-71.92s48.68-71.92,101.3-71.92h157.43c52.62,0,101.3,12.28,101.3,71.92s-48.68,71.92-101.3,71.92h-157.43ZM1477.46,644.15c11.84,0,18.42-2.19,18.42-12.28s-6.58-12.28-18.42-12.28h-158.31c-11.84,0-18.42,2.19-18.42,12.28s6.58,12.28,18.42,12.28h158.31Z"/>
  </g>
  <g>
    <path class="st2" d="M339.92,737.06c-4.71-10.69-5.66-25.78-5.66-37.56,0-2.2,0-4.24.16-6.44-.79,0-1.73.16-2.51.16-5.34,0-7.86-2.04-7.86-6.29,0-2.51,1.73-4.56,4.24-5.5,1.57-.47,5.97-.63,9.9-.63,11.79-.31,22.95-4.09,34.26-7.39,1.26-.31,2.36-.63,3.3-.63,2.67,0,4.72,1.89,4.72,4.4,0,1.41-.47,2.51-1.73,3.46-3.14,2.67-19.65,7.7-25.46,8.8-2.04.47-3.93.94-5.97,1.73-.63,4.71-.63,9.59-.63,14.62,0,7.54.63,15.24,2.36,22.47,17.29-5.34,35.52-15.87,45.73-26.25,1.26-1.41,2.67-2.83,4.56-3.93.79-.47,1.89-.79,2.99-.63,2.36.31,4.4,2.36,4.4,4.4,0,3.14-5.34,7.23-7.54,9.12-13.36,11.47-28.6,20.12-44.95,26.56-2.67,1.1-6.76,2.83-8.96,2.83-2.67,0-4.4-1.26-5.34-3.3ZM407.66,699.18c0-16.34-.79-30.96-5.03-46.83-.16-.63-.16-1.26-.16-1.89,0-3.77,2.83-6.6,6.6-6.6,2.2,0,4.24,1.73,5.34,3.62,4.09,8.17,4.24,37.88,4.4,47.46,9.27-.47,14.3-2.36,22.79-5.34.63-.16,1.41,0,2.04,0,2.67.31,4.72,3.62,4.4,6.29-.31,1.73-1.1,2.99-2.67,3.93-7.23,4.87-16.66,6.13-26.88,6.29-.47,12.73-2.51,18.86-4.4,31.43-.63,3.3-1.57,14.3-2.99,16.5-1.1,1.73-2.36,2.36-4.4,2.36-2.67,0-4.24-2.83-4.24-5.34,2.2-17.13,5.19-34.26,5.19-51.87Z"/>
    <path class="st2" d="M458.9,672.62c-3.93,0-6.44-2.83-6.44-6.44,0-2.04,1.73-4.09,3.77-5.19,3.93-.94,7.86-1.26,11.79-1.57,10.84-.94,21.37-2.99,31.59-6.44.31-.16.94-.16,1.57-.16,2.67,0,5.19,2.83,5.19,5.34,0,17.29-5.66,33.48-11.47,49.66-.94,2.83-2.04,5.81-3.61,8.33-.94,1.42-2.51,2.51-4.4,2.51-2.51,0-4.71-2.04-4.71-4.4,0-1.1,1.57-5.03,2.99-8.49.79-2.04,1.57-4.09,1.89-5.19,3.93-11,6.76-23.1,7.7-34.89-11,3.3-24.05,6.92-35.83,6.92ZM491.9,731.4c0-2.36,1.57-4.4,3.46-5.34,2.2-1.1,13.67-1.57,17.29-2.2,11.32-1.89,21.69-5.66,32.38-9.43.47-.16.94-.16,1.57-.16,2.51,0,4.71,2.04,4.71,4.71,0,1.26-.63,2.83-1.73,3.62-.31.31-.63.47-.94.63-12.1,5.66-37.41,14.77-50.45,14.77-3.77,0-6.29-2.99-6.29-6.6ZM499.45,747.43c0-2.04,1.89-4.56,3.61-5.34,2.2-.94,9.74-.63,12.57-.79,8.17-.47,16.5-1.41,24.36-3.14,2.04-.63,4.09-1.42,6.13-1.42,2.67,0,4.71,2.36,4.71,5.03,0,1.42-.94,2.67-2.04,3.46-2.99,2.51-29.23,7.54-34.58,8.17,1.1,7.23,4.4,15.25,13.04,15.25,11,0,23.73-10.84,26.88-10.84,2.36,0,4.56,2.04,4.56,4.56s-1.89,4.09-3.77,5.34c-8.33,5.19-17.76,11.47-27.82,11.47-16.35,0-22.95-12.57-25.77-26.72-1.41-1.26-1.89-3.14-1.89-5.03ZM539.05,693.84c.94-6.29,1.41-12.42,1.41-18.7,0-12.89-1.41-19.17-5.34-31.43-.16-.47-.16-1.1-.16-1.73,0-3.77,2.99-6.44,6.76-6.44,9.12,0,9.74,25.93,9.74,32.38,5.66-.63,10.53-2.51,15.72-4.71.63-.16,1.41-.31,2.04-.31,2.83,0,5.19,3.3,5.19,5.97,0,6.92-18.55,9.9-23.73,10.37-.47,4.71-2.83,25.62-4.87,28.45-.94,1.26-2.2,2.2-3.93,2.2-2.51,0-4.56-2.04-4.56-4.71,0-3.77,1.1-7.54,1.73-11.32Z"/>
    <path class="st2" d="M611.51,675.61c16.66,0,25.62,14.14,25.62,29.23,0,13.99-11.47,25.62-25.62,25.62s-28.29-10.06-28.29-25.46,11.63-29.39,28.29-29.39ZM594.22,705c0,9.43,8.8,14.77,17.13,14.77s14.3-6.6,14.3-14.93c0-9.74-4.09-18.7-14.93-18.7-9.9,0-16.5,9.43-16.5,18.86ZM658.66,668.69c-1.26-3.46-4.56-8.17-4.56-11.63,0-3.14,3.3-5.82,6.29-5.82,2.36,0,4.4,1.42,5.5,3.46,7.7,11.94,9.12,34.26,9.12,48.41,0,8.01-2.04,47.78-5.03,52.49-.79,1.41-2.04,2.36-3.93,2.36-2.99,0-4.56-2.36-4.56-5.19,1.57-13.04,2.99-26.25,2.99-39.45s-1.1-32.06-5.82-44.64Z"/>
    <path class="st2" d="M738.19,685.67c-3.61,0-6.44-2.99-6.44-6.29,0-2.04,1.41-4.4,3.46-5.34,2.83-1.26,6.6-1.89,10.22-2.67,7.39-1.26,14.15-3.61,21.22-5.97,3.14-1.1,8.96-3.46,12.1-3.62,3.14-.16,5.66,2.51,5.66,5.5,0,5.19-8.64,23.26-11.47,28.6,4.87,3.77,20.75,26.88,20.75,32.53,0,2.51-3.3,4.71-5.81,4.71-1.73,0-3.93-.94-4.87-2.67-4.4-9.12-9.12-17.6-16.03-24.83-7.23,10.22-17.76,20.75-30.65,21.22-2.67,0-4.87-2.36-4.87-4.87.16-2.99,4.09-4.24,8.02-5.34,16.19-4.71,25.15-25.62,30.33-40.23-6.92,2.51-24.83,9.27-31.59,9.27ZM807.18,699.18c0-16.34-.94-30.96-5.19-46.83-.16-.63-.16-1.26-.16-1.89,0-3.77,2.83-6.6,6.6-6.6,2.2,0,4.4,1.73,5.34,3.62,4.09,8.17,4.24,37.88,4.4,47.46,9.43-.47,14.46-2.36,22.79-5.34.63-.16,1.41,0,2.04,0,2.67.31,4.72,3.62,4.4,6.29-.16,1.73-1.1,2.99-2.51,3.93-7.39,4.87-16.82,6.13-26.88,6.29-.63,12.73-2.67,18.86-4.56,31.43-.47,3.3-1.41,14.3-2.99,16.5-1.1,1.73-2.36,2.36-4.4,2.36-2.67,0-4.24-2.83-4.24-5.34,2.36-17.13,5.34-34.26,5.34-51.87Z"/>
    <path class="st2" d="M889.54,673.72c-9.59,3.3-27.5,9.74-31.12,9.74-3.3,0-5.97-3.14-5.97-6.29,0-2.2,1.26-3.46,2.99-4.87,3.77-1.89,7.86-2.83,11.94-3.93,4.4-1.1,8.64-2.36,12.89-3.77,7.39-2.36,16.97-5.5,19.17-5.5,5.19,0,5.66,4.4,5.66,8.17,0,15.25-2.99,30.02-6.92,44.79-.94,3.93-2.83,10.69-4.09,12.42-.94,1.1-2.04,1.73-3.61,1.73-2.83,0-4.87-1.89-4.87-4.4,0-1.26,1.41-6.29,2.51-10.06,3.61-12.73,5.34-26.4,5.81-39.61-1.57.47-2.99,1.1-4.4,1.57ZM914.84,740.83c-3.93,1.57-11,5.03-15.09,5.03-3.46,0-6.13-2.67-6.13-6.13,0-1.89,1.1-4.56,2.51-5.34,4.56-2.67,49.04-16.66,53.59-16.66,2.51,0,4.87,2.99,4.87,5.5,0,15.4-2.99,38.5-8.8,52.96-.79,1.89-3.14,2.67-4.24,2.67-2.51,0-4.56-2.04-4.56-4.56s2.51-9.43,3.3-12.26c2.36-10.37,3.3-21.06,3.61-31.59-9.74,3.3-19.49,6.6-29.08,10.37ZM945.49,704.37c.31-4.71.47-9.74.47-14.46-6.92,5.03-14.15,9.74-22.16,12.73-2.04.63-4.56,1.57-6.6,1.57-2.67,0-5.34-2.83-5.34-5.34s2.04-4.56,3.93-5.5c4.4-2.2,9.27-3.46,13.52-5.82,5.97-3.14,11.16-7.54,16.19-11.79-.31-3.77-.63-7.39-.94-11-6.44,1.41-12.89,2.67-19.17,4.71-3.61,1.1-8.02,3.14-11.47,3.14-2.83,0-5.03-3.14-5.03-5.82,0-1.57,1.1-2.83,2.04-3.77,2.67-2.51,26.56-8.64,31.59-9.59-.47-2.04-1.41-4.24-1.41-6.29,0-3.46,3.77-5.82,6.92-5.82,2.51,0,4.09,2.04,5.34,3.93,2.2,4.24,3.3,24.83,3.3,30.65s-.47,33.32-2.99,36.93c-1.1,1.41-2.2,2.2-3.93,2.2-2.51,0-4.72-1.89-4.72-4.56,0-2.04.31-4.09.47-6.13Z"/>
    <path class="st2" d="M1063.52,698.08c-3.93,2.83-11.94,6.13-16.5,8.33-21.38,9.74-37.09,14.3-60.35,17.29-3.46.47-7.23,1.26-10.69,1.26-3.77,0-6.13-3.46-6.13-6.92,0-3.77,3.46-5.5,6.6-5.82,8.33-1.1,16.82-1.1,24.99-2.36,15.72-2.51,30.65-7.7,45.11-14.14,4.24-1.89,8.49-4.09,12.73-5.97,3.14-1.41,6.76.79,6.76,4.24,0,2.04-.94,3.14-2.51,4.09ZM1044.98,684.09c-5.34,0-22.16-5.34-27.66-7.86-6.76,7.7-14.3,13.99-23.89,18.39-2.36,1.1-6.92,2.99-9.43,2.67-2.36-.31-4.24-2.04-4.56-4.09-.16-2.2,1.1-4.09,2.83-5.03,1.42-.63,3.14-.94,4.56-1.57,14.77-5.66,25.62-17.76,31.59-31.75-6.76,2.67-26.56,10.37-31.75,10.37-3.46,0-5.97-2.36-5.97-5.82,0-2.83,1.73-4.71,4.87-5.66,6.29-1.41,13.2-3.46,19.33-5.66,8.02-2.99,19.02-7.54,22.95-7.54,2.67,0,5.19,2.99,5.19,5.34,0,5.03-6.29,16.97-9.12,21.38,2.67,1.57,8.64,3.14,14.14,4.4,4.87,1.26,9.12,2.2,10.06,2.83,1.89.79,2.51,2.51,2.51,4.4,0,2.83-2.67,5.19-5.66,5.19ZM1023.92,729.36c11.47,0,24.2,11.79,24.2,23.58,0,15.4-10.69,25.93-25.93,25.93-13.83,0-25.93-8.8-25.93-23.26s13.83-26.25,27.66-26.25ZM1007.26,755.6c0,8.33,7.39,12.1,14.93,12.1,9.12,0,14.93-5.5,14.93-14.62,0-5.97-7.86-12.73-13.67-12.73-7.7,0-16.19,7.39-16.19,15.25Z"/>
    <path class="st2" d="M1115.7,719.3c0-3.3,3.3-6.13,6.44-6.13.47,0,1.1,0,1.57.16,3.62,1.1,6.29,1.89,10.06,1.89,5.03,0,9.9-.79,14.62-2.04-.47-8.49-.63-17.29-2.36-25.62-.94-3.62-3.14-8.02-3.14-11.47,0-2.67,2.83-4.87,5.34-4.87,1.73,0,2.83.47,4.09,1.73,4.87,5.81,7.07,28.92,7.39,37.09,13.99-5.03,27.66-11.79,39.76-20.75,2.51-1.73,4.71-4.09,7.23-5.97.79-.47,1.89-.63,2.83-.63,2.36,0,4.24,2.51,4.24,4.71,0,.79-.31,1.73-.79,2.36-8.8,12.1-42.75,28.6-57.37,33.32-7.86,2.51-16.19,4.4-24.52,4.4-5.34,0-15.4-.47-15.4-8.17ZM1177.47,644.33c5.5,0,5.97,5.97,5.97,10.53l-.16,2.51c0,6.29-.47,33.79-2.83,37.56-.94,1.41-2.2,2.2-4.09,2.2-2.51,0-4.71-1.89-4.71-4.4,0-1.57.16-2.99.31-4.56.79-6.76,1.1-13.67,1.1-20.43,0-4.09-.31-8.17-.63-12.26-12.89,1.57-28.6,3.46-41.18,3.46-3.77,0-6.29-2.83-6.29-6.44,0-1.89,1.57-4.4,4.09-5.34,2.67-.94,9.12-.94,10.84-.94h4.24c1.41,0,2.67.16,3.93.16,1.42,0,2.67-.16,3.93-.16,5.66-.31,11.32-.63,16.97-1.1,2.83-.16,5.66-.79,8.49-.79ZM1177.15,729.83c12.73,0,16.66,12.89,16.66,23.42,0,13.2-11.47,24.83-24.52,24.83-9.74,0-22.16-9.59-22.16-19.96,0-16.82,13.83-28.29,30.02-28.29ZM1157.98,757.49c0,4.56,7.23,9.43,11.32,9.43,7.07,0,13.52-6.6,13.52-13.67,0-3.93-.47-12.42-5.97-12.42-9.27,0-18.86,6.92-18.86,16.66Z"/>
    <path class="st2" d="M1235.15,739.42c-4.09,0-8.49-.16-12.57-1.1-3.14-.63-5.34-2.83-5.34-6.29s2.83-6.29,6.29-6.29c.63,0,1.1.16,1.57.16,4.71.79,9.59,1.57,14.46,1.57,15.25,0,23.58-2.99,37.41-9.43,6.44-2.99,12.57-6.44,18.7-10.37,4.24-2.67,8.02-6.29,12.26-8.8.79-.47,1.73-.63,2.67-.63,2.36,0,4.24,2.51,4.24,4.56,0,1.89-1.26,3.46-2.67,4.71-9.9,8.33-21.06,14.62-32.22,20.9.31,1.89.31,3.61.31,5.5,0,6.29-1.26,37.09-3.3,41.18-.94,1.57-2.36,2.67-4.24,2.67-2.36,0-4.56-2.04-4.56-4.56,0-5.97.79-11.95.79-17.92s-.31-14.46-1.1-21.38c-10.37,4.09-21.53,5.5-32.69,5.5ZM1275.38,662.41c0-1.57.16-3.14.16-4.87,0-5.19-.79-9.43-1.89-14.3-.16-1.41-.47-2.36-.47-3.77,0-3.14,3.14-5.82,6.44-5.82,2.83,0,5.03,1.57,5.97,4.09,1.57,4.4,1.57,10.06,1.57,14.46,0,11-2.51,23.42-6.76,33.63-4.24,10.53-14.14,25.15-26.4,25.15-5.5,0-9.9-2.83-11.79-7.86-1.57-4.4-2.83-8.96-3.93-13.52-1.42-5.03-2.83-9.9-4.56-14.62-2.04-5.34-4.4-12.1-4.4-14.46,0-3.14,3.3-5.82,6.44-5.82,5.34,0,6.76,6.13,8.02,10.53.16.79.31,1.26.47,1.89,10.22-2.83,20.43-4.71,31.12-4.71ZM1273.5,675.14c.16-.63.31-1.42.47-1.89-9.12.31-17.92,1.57-26.72,4.24l.63,2.51c1.42,6.13,4.56,19.02,5.03,19.65.31.47.79.94,1.1.94,9.12,0,18.07-18.23,19.49-25.46Z"/>
    <path class="st2" d="M1385.87,677.65c-16.82,11.63-38.66,19.65-59.41,19.65-3.62,0-6.29-2.67-6.29-6.13,0-2.99,1.73-5.03,4.87-5.66,2.2-.47,4.56-.47,6.92-.47,15.87-.16,30.96-4.71,44.63-12.73,2.36-1.26,5.19-2.99,7.23-2.99,2.36,0,4.4,2.51,4.4,4.56,0,1.57-.79,2.83-2.36,3.77ZM1372.2,663.82c-10.53,5.19-28.13,12.1-39.92,12.1-3.62,0-6.44-2.67-6.44-6.13,0-2.36.94-3.93,3.14-5.19,1.42-.79,5.34-.94,8.17-1.1,11.16-.63,22.32-3.93,32.22-8.64,1.89-.79,4.09-1.89,5.82-1.89,2.2,0,4.4,2.51,4.4,4.4,0,3.3-4.24,5.19-7.39,6.44ZM1336.68,725.74c0-13.04,14.3-24.05,26.88-24.05s21.53,7.39,21.53,19.33-12.1,25.15-24.67,25.15c-11.32,0-23.73-8.8-23.73-20.43ZM1347.99,726.21c0,5.34,6.29,9.75,12.57,9.75s13.2-7.23,13.2-15.09c0-5.97-4.71-8.49-10.06-8.49-7.23,0-15.72,6.29-15.72,13.83ZM1399.23,752.15c.79-4.71,1.26-9.59,1.89-14.3,1.57-14.46,2.36-29.08,2.36-43.54,0-12.42-.79-24.99-2.83-37.25-.47-2.83-1.26-5.5-1.26-8.33,0-3.46,3.3-6.13,6.6-6.13,2.04,0,4.56,1.73,5.34,3.61,2.67,5.34,3.46,33.16,3.46,40.55,0,5.97-.31,12.1-.63,18.23,7.23-1.1,12.73-3.14,19.33-5.82.63-.16,1.26-.31,1.89-.31,2.83,0,5.34,2.99,5.34,5.66,0,7.7-21.53,11.47-27.35,11.94-.63,6.76-4.56,42.43-6.6,45.89-1.1,1.57-2.51,2.2-4.4,2.2-2.83,0-4.24-2.83-4.24-5.34,0-2.36.63-4.71,1.1-7.07Z"/>
    <path class="st2" d="M1447.8,685.67c-3.62,0-6.44-2.99-6.44-6.29,0-2.04,1.42-4.4,3.46-5.34,2.83-1.26,6.6-1.89,10.22-2.67,7.39-1.26,14.14-3.61,21.22-5.97,3.14-1.1,8.96-3.46,12.1-3.62,3.14-.16,5.66,2.51,5.66,5.5,0,5.19-8.64,23.26-11.47,28.6,4.87,3.77,20.75,26.88,20.75,32.53,0,2.51-3.3,4.71-5.82,4.71-1.73,0-3.93-.94-4.87-2.67-4.4-9.12-9.12-17.6-16.03-24.83-7.23,10.22-17.76,20.75-30.65,21.22-2.67,0-4.87-2.36-4.87-4.87.16-2.99,4.09-4.24,8.02-5.34,16.19-4.71,25.15-25.62,30.33-40.23-6.92,2.51-24.83,9.27-31.59,9.27ZM1516.79,699.18c0-16.34-.94-30.96-5.19-46.83-.16-.63-.16-1.26-.16-1.89,0-3.77,2.83-6.6,6.6-6.6,2.2,0,4.4,1.73,5.34,3.62,4.09,8.17,4.24,37.88,4.4,47.46,9.43-.47,14.46-2.36,22.79-5.34.63-.16,1.41,0,2.04,0,2.67.31,4.71,3.62,4.4,6.29-.16,1.73-1.1,2.99-2.51,3.93-7.39,4.87-16.82,6.13-26.88,6.29-.63,12.73-2.67,18.86-4.56,31.43-.47,3.3-1.42,14.3-2.99,16.5-1.1,1.73-2.36,2.36-4.4,2.36-2.67,0-4.24-2.83-4.24-5.34,2.36-17.13,5.34-34.26,5.34-51.87Z"/>
    <path class="st2" d="M1570.7,746.96c0-4.87,5.82-7.54,9.9-7.54s6.92,4.56,6.92,8.49c0,4.24-3.77,8.17-8.17,8.17s-8.64-4.56-8.64-9.12ZM1571.02,656.43c0-3.46,1.57-7.07,5.5-7.07,2.04,0,3.77,1.1,4.87,2.67,3.77,5.82,6.44,34.58,6.44,42.59,0,5.66-.79,21.22-8.8,21.22-2.99,0-5.34-2.99-5.34-5.82,0-1.42,1.41-4.09,1.73-5.5.94-3.3,1.26-6.76,1.26-10.06,0-12.89-2.99-25.3-5.66-38.03Z"/>
  </g>
</svg>